<?xml version="1.0" encoding="UTF-8" standalone="no"?>
<!DOCTYPE svg PUBLIC "-//W3C//DTD SVG 1.1//EN"
 "http://www.w3.org/Graphics/SVG/1.1/DTD/svg11.dtd">
<!-- Generated by graphviz version 2.40.1 (0)
 -->
<!-- Title: call_graph Pages: 1 -->
<svg width="736pt" height="827pt"
 viewBox="0.00 0.00 736.00 827.00" xmlns="http://www.w3.org/2000/svg" xmlns:xlink="http://www.w3.org/1999/xlink">
<g id="graph0" class="graph" transform="scale(1 1) rotate(0) translate(4 823)">
<title>call_graph</title>
<polygon fill="#ffffff" stroke="transparent" points="-4,4 -4,-823 732,-823 732,4 -4,4"/>
<!-- Tasks_main() -->
<g id="node1" class="node">
<title>Tasks_main()</title>
<polygon fill="#ccccff" stroke="#000000" points="72,-162 0,-162 0,-140 72,-140 72,-162"/>
<text text-anchor="middle" x="36" y="-149.1" font-family="Courier New" font-size="8.00" fill="#000000">Tasks_main()</text>
</g>
<!-- OSInit() -->
<g id="node4" class="node">
<title>OSInit()</title>
<polygon fill="#ccccff" stroke="#000000" points="207.5,-539 153.5,-539 153.5,-517 207.5,-517 207.5,-539"/>
<text text-anchor="middle" x="180.5" y="-526.1" font-family="Courier New" font-size="8.00" fill="#000000">OSInit()</text>
</g>
<!-- Tasks_main()&#45;&gt;OSInit() -->
<g id="edge28" class="edge">
<title>Tasks_main()&#45;&gt;OSInit()</title>
<path fill="none" stroke="#000000" d="M40.3246,-162.2829C61.0154,-216.265 149.9062,-448.1809 174.2916,-511.8022"/>
<polygon fill="#000000" stroke="#000000" points="172.7686,-512.7187 176.1923,-516.7611 176.0368,-511.466 172.7686,-512.7187"/>
</g>
<!-- createTask() -->
<g id="node10" class="node">
<title>createTask()</title>
<polygon fill="#ccccff" stroke="#000000" points="216.5,-260 144.5,-260 144.5,-238 216.5,-238 216.5,-260"/>
<text text-anchor="middle" x="180.5" y="-247.1" font-family="Courier New" font-size="8.00" fill="#000000">createTask()</text>
</g>
<!-- Tasks_main()&#45;&gt;createTask() -->
<g id="edge8" class="edge">
<title>Tasks_main()&#45;&gt;createTask()</title>
<path fill="none" stroke="#000000" d="M44.3059,-162.2303C56.5808,-178.0927 81.0404,-207.0158 108,-224 117.5735,-230.0312 128.7806,-234.8131 139.4816,-238.5106"/>
<polygon fill="#000000" stroke="#000000" points="139.0582,-240.214 144.355,-240.1337 140.1642,-236.8933 139.0582,-240.214"/>
</g>
<!-- debug_printf() -->
<g id="node11" class="node">
<title>debug_printf()</title>
<polygon fill="#ccccff" stroke="#000000" points="381.5,-221 299.5,-221 299.5,-199 381.5,-199 381.5,-221"/>
<text text-anchor="middle" x="340.5" y="-208.1" font-family="Courier New" font-size="8.00" fill="#000000">debug_printf()</text>
</g>
<!-- Tasks_main()&#45;&gt;debug_printf() -->
<g id="edge30" class="edge">
<title>Tasks_main()&#45;&gt;debug_printf()</title>
<path fill="none" stroke="#000000" d="M51.4191,-162.133C65.434,-171.6052 87.0626,-184.6534 108,-191 170.4498,-209.9299 246.393,-212.5575 294.1039,-211.9052"/>
<polygon fill="#000000" stroke="#000000" points="294.2343,-213.6534 299.2048,-211.8214 294.1768,-210.1538 294.2343,-213.6534"/>
</g>
<!-- OSStart() -->
<g id="node14" class="node">
<title>OSStart()</title>
<polygon fill="#ccccff" stroke="#000000" points="208.5,-182 152.5,-182 152.5,-160 208.5,-160 208.5,-182"/>
<text text-anchor="middle" x="180.5" y="-169.1" font-family="Courier New" font-size="8.00" fill="#000000">OSStart()</text>
</g>
<!-- Tasks_main()&#45;&gt;OSStart() -->
<g id="edge9" class="edge">
<title>Tasks_main()&#45;&gt;OSStart()</title>
<path fill="none" stroke="#000000" d="M72.0907,-155.9953C95.0946,-159.1792 124.6877,-163.2751 147.1416,-166.3829"/>
<polygon fill="#000000" stroke="#000000" points="146.915,-168.1182 152.1077,-167.0703 147.3949,-164.6512 146.915,-168.1182"/>
</g>
<!-- IrqCtlr_registerHandlers() -->
<g id="node21" class="node">
<title>IrqCtlr_registerHandlers()</title>
<polygon fill="#ccccff" stroke="#000000" points="253,-142 108,-142 108,-120 253,-120 253,-142"/>
<text text-anchor="middle" x="180.5" y="-129.1" font-family="Courier New" font-size="8.00" fill="#000000">IrqCtlr_registerHandlers()</text>
</g>
<!-- Tasks_main()&#45;&gt;IrqCtlr_registerHandlers() -->
<g id="edge16" class="edge">
<title>Tasks_main()&#45;&gt;IrqCtlr_registerHandlers()</title>
<path fill="none" stroke="#000000" d="M72.0907,-146.0047C81.5871,-144.6904 92.2063,-143.2206 102.9827,-141.729"/>
<polygon fill="#000000" stroke="#000000" points="103.2288,-143.4618 107.9416,-141.0427 102.7488,-139.9948 103.2288,-143.4618"/>
</g>
<!-- IrqCtlr_clrAllIrq() -->
<g id="node31" class="node">
<title>IrqCtlr_clrAllIrq()</title>
<polygon fill="#ccccff" stroke="#000000" points="234.5,-102 126.5,-102 126.5,-80 234.5,-80 234.5,-102"/>
<text text-anchor="middle" x="180.5" y="-89.1" font-family="Courier New" font-size="8.00" fill="#000000">IrqCtlr_clrAllIrq()</text>
</g>
<!-- Tasks_main()&#45;&gt;IrqCtlr_clrAllIrq() -->
<g id="edge35" class="edge">
<title>Tasks_main()&#45;&gt;IrqCtlr_clrAllIrq()</title>
<path fill="none" stroke="#000000" d="M53.1719,-139.9259C67.4073,-131.1271 88.4109,-119.0095 108,-111 114.6774,-108.2698 121.8495,-105.7865 128.9917,-103.5707"/>
<polygon fill="#000000" stroke="#000000" points="129.6452,-105.2014 133.9251,-102.0796 128.6326,-101.8511 129.6452,-105.2014"/>
</g>
<!-- IrqCtlr_enable() -->
<g id="node35" class="node">
<title>IrqCtlr_enable()</title>
<polygon fill="#ccccff" stroke="#000000" points="227,-62 134,-62 134,-40 227,-40 227,-62"/>
<text text-anchor="middle" x="180.5" y="-49.1" font-family="Courier New" font-size="8.00" fill="#000000">IrqCtlr_enable()</text>
</g>
<!-- Tasks_main()&#45;&gt;IrqCtlr_enable() -->
<g id="edge42" class="edge">
<title>Tasks_main()&#45;&gt;IrqCtlr_enable()</title>
<path fill="none" stroke="#000000" d="M42.942,-139.8646C54.3535,-122.4955 78.7534,-89.0754 108,-71 114.4073,-67.0401 121.6084,-63.8492 128.9202,-61.282"/>
<polygon fill="#000000" stroke="#000000" points="129.7952,-62.8357 133.9915,-59.6025 128.6948,-59.5132 129.7952,-62.8357"/>
</g>
<!-- GET_NUM_ITEMS() -->
<g id="node40" class="node">
<title>GET_NUM_ITEMS()</title>
<polygon fill="#ccccff" stroke="#000000" points="224,-22 137,-22 137,0 224,0 224,-22"/>
<text text-anchor="middle" x="180.5" y="-9.1" font-family="Courier New" font-size="8.00" fill="#000000">GET_NUM_ITEMS()</text>
</g>
<!-- Tasks_main()&#45;&gt;GET_NUM_ITEMS() -->
<g id="edge48" class="edge">
<title>Tasks_main()&#45;&gt;GET_NUM_ITEMS()</title>
<path fill="none" stroke="#000000" d="M39.5145,-139.7939C47.5734,-115.9724 69.6975,-60.104 108,-31 115.1052,-25.6012 123.5838,-21.6595 132.1963,-18.7818"/>
<polygon fill="#000000" stroke="#000000" points="132.7332,-20.4476 136.9868,-17.2901 131.6926,-17.1058 132.7332,-20.4476"/>
</g>
<!-- OS_FlagInit() -->
<g id="node2" class="node">
<title>OS_FlagInit()</title>
<polygon fill="#ccccff" stroke="#000000" points="379,-779 302,-779 302,-757 379,-757 379,-779"/>
<text text-anchor="middle" x="340.5" y="-766.1" font-family="Courier New" font-size="8.00" fill="#000000">OS_FlagInit()</text>
</g>
<!-- OS_MemClr() -->
<g id="node3" class="node">
<title>OS_MemClr()</title>
<polygon fill="#ccccff" stroke="#000000" points="510,-719 444,-719 444,-697 510,-697 510,-719"/>
<text text-anchor="middle" x="477" y="-706.1" font-family="Courier New" font-size="8.00" fill="#000000">OS_MemClr()</text>
</g>
<!-- OS_FlagInit()&#45;&gt;OS_MemClr() -->
<g id="edge1" class="edge">
<title>OS_FlagInit()&#45;&gt;OS_MemClr()</title>
<path fill="none" stroke="#000000" d="M370.0558,-756.9271C377.2741,-754.1116 384.9479,-751.0243 392,-748 411.5923,-739.5977 433.337,-729.3476 449.9284,-721.3271"/>
<polygon fill="#000000" stroke="#000000" points="450.7297,-722.8835 454.4653,-719.1274 449.2027,-719.7341 450.7297,-722.8835"/>
</g>
<!-- OSInit()&#45;&gt;OS_FlagInit() -->
<g id="edge17" class="edge">
<title>OSInit()&#45;&gt;OS_FlagInit()</title>
<path fill="none" stroke="#000000" d="M182.9932,-539.3501C191.416,-575.1176 222.1066,-686.7336 289,-748 291.6746,-750.4496 294.6826,-752.6119 297.8672,-754.5183"/>
<polygon fill="#000000" stroke="#000000" points="297.0807,-756.0829 302.3046,-756.9623 298.7693,-753.0172 297.0807,-756.0829"/>
</g>
<!-- OSInitHookBegin() -->
<g id="node5" class="node">
<title>OSInitHookBegin()</title>
<polygon fill="#ccccff" stroke="#000000" points="389.5,-659 291.5,-659 291.5,-637 389.5,-637 389.5,-659"/>
<text text-anchor="middle" x="340.5" y="-646.1" font-family="Courier New" font-size="8.00" fill="#000000">OSInitHookBegin()</text>
</g>
<!-- OSInit()&#45;&gt;OSInitHookBegin() -->
<g id="edge2" class="edge">
<title>OSInit()&#45;&gt;OSInitHookBegin()</title>
<path fill="none" stroke="#000000" d="M189.9024,-539.0598C207.519,-559.1881 247.4812,-602.112 289,-628 293.0046,-630.497 297.3723,-632.773 301.8156,-634.8206"/>
<polygon fill="#000000" stroke="#000000" points="301.3719,-636.5375 306.6531,-636.9526 302.7835,-633.3347 301.3719,-636.5375"/>
</g>
<!-- OS_QInit() -->
<g id="node6" class="node">
<title>OS_QInit()</title>
<polygon fill="#ccccff" stroke="#000000" points="371,-739 310,-739 310,-717 371,-717 371,-739"/>
<text text-anchor="middle" x="340.5" y="-726.1" font-family="Courier New" font-size="8.00" fill="#000000">OS_QInit()</text>
</g>
<!-- OSInit()&#45;&gt;OS_QInit() -->
<g id="edge3" class="edge">
<title>OSInit()&#45;&gt;OS_QInit()</title>
<path fill="none" stroke="#000000" d="M184.2275,-539.0096C195.2545,-570.0006 230.6424,-658.9079 289,-708 293.7021,-711.9555 299.2759,-715.1838 304.9906,-717.8011"/>
<polygon fill="#000000" stroke="#000000" points="304.5226,-719.5041 309.8081,-719.8585 305.8972,-716.2853 304.5226,-719.5041"/>
</g>
<!-- OS_InitTaskIdle() -->
<g id="node7" class="node">
<title>OS_InitTaskIdle()</title>
<polygon fill="#ccccff" stroke="#000000" points="389.5,-339 291.5,-339 291.5,-317 389.5,-317 389.5,-339"/>
<text text-anchor="middle" x="340.5" y="-326.1" font-family="Courier New" font-size="8.00" fill="#000000">OS_InitTaskIdle()</text>
</g>
<!-- OSInit()&#45;&gt;OS_InitTaskIdle() -->
<g id="edge26" class="edge">
<title>OSInit()&#45;&gt;OS_InitTaskIdle()</title>
<path fill="none" stroke="#000000" d="M184.2275,-516.9904C195.2545,-485.9994 230.6424,-397.0921 289,-348 291.8763,-345.5804 295.0788,-343.4329 298.4402,-341.5309"/>
<polygon fill="#000000" stroke="#000000" points="299.4893,-342.957 303.1067,-339.087 297.8654,-339.8565 299.4893,-342.957"/>
</g>
<!-- OS_InitEventList() -->
<g id="node9" class="node">
<title>OS_InitEventList()</title>
<polygon fill="#ccccff" stroke="#000000" points="392,-699 289,-699 289,-677 392,-677 392,-699"/>
<text text-anchor="middle" x="340.5" y="-686.1" font-family="Courier New" font-size="8.00" fill="#000000">OS_InitEventList()</text>
</g>
<!-- OSInit()&#45;&gt;OS_InitEventList() -->
<g id="edge5" class="edge">
<title>OSInit()&#45;&gt;OS_InitEventList()</title>
<path fill="none" stroke="#000000" d="M186.3005,-539.1018C200.4417,-565.1636 239.2127,-630.8572 289,-668 292.3706,-670.5146 296.0973,-672.7545 299.9592,-674.74"/>
<polygon fill="#000000" stroke="#000000" points="299.2783,-676.3546 304.5416,-676.9553 300.8017,-673.2035 299.2783,-676.3546"/>
</g>
<!-- OSTmr_Init() -->
<g id="node12" class="node">
<title>OSTmr_Init()</title>
<polygon fill="#ccccff" stroke="#000000" points="376.5,-579 304.5,-579 304.5,-557 376.5,-557 376.5,-579"/>
<text text-anchor="middle" x="340.5" y="-566.1" font-family="Courier New" font-size="8.00" fill="#000000">OSTmr_Init()</text>
</g>
<!-- OSInit()&#45;&gt;OSTmr_Init() -->
<g id="edge21" class="edge">
<title>OSInit()&#45;&gt;OSTmr_Init()</title>
<path fill="none" stroke="#000000" d="M207.6418,-534.7855C232.8421,-541.0855 270.7083,-550.5521 299.576,-557.769"/>
<polygon fill="#000000" stroke="#000000" points="299.2164,-559.4829 304.4916,-558.9979 300.0654,-556.0874 299.2164,-559.4829"/>
</g>
<!-- OS_InitRdyList() -->
<g id="node16" class="node">
<title>OS_InitRdyList()</title>
<polygon fill="#ccccff" stroke="#000000" points="387,-539 294,-539 294,-517 387,-517 387,-539"/>
<text text-anchor="middle" x="340.5" y="-526.1" font-family="Courier New" font-size="8.00" fill="#000000">OS_InitRdyList()</text>
</g>
<!-- OSInit()&#45;&gt;OS_InitRdyList() -->
<g id="edge11" class="edge">
<title>OSInit()&#45;&gt;OS_InitRdyList()</title>
<path fill="none" stroke="#000000" d="M207.6418,-528C229.7083,-528 261.4865,-528 288.4308,-528"/>
<polygon fill="#000000" stroke="#000000" points="288.7509,-529.7501 293.7509,-528 288.7509,-526.2501 288.7509,-529.7501"/>
</g>
<!-- OS_InitTaskStat() -->
<g id="node17" class="node">
<title>OS_InitTaskStat()</title>
<polygon fill="#ccccff" stroke="#000000" points="389.5,-299 291.5,-299 291.5,-277 389.5,-277 389.5,-299"/>
<text text-anchor="middle" x="340.5" y="-286.1" font-family="Courier New" font-size="8.00" fill="#000000">OS_InitTaskStat()</text>
</g>
<!-- OSInit()&#45;&gt;OS_InitTaskStat() -->
<g id="edge24" class="edge">
<title>OSInit()&#45;&gt;OS_InitTaskStat()</title>
<path fill="none" stroke="#000000" d="M182.9932,-516.6499C191.416,-480.8824 222.1066,-369.2664 289,-308 291.6746,-305.5504 294.6826,-303.3881 297.8672,-301.4817"/>
<polygon fill="#000000" stroke="#000000" points="298.7693,-302.9828 302.3046,-299.0377 297.0807,-299.9171 298.7693,-302.9828"/>
</g>
<!-- OS_MemInit() -->
<g id="node20" class="node">
<title>OS_MemInit()</title>
<polygon fill="#ccccff" stroke="#000000" points="376.5,-619 304.5,-619 304.5,-597 376.5,-597 376.5,-619"/>
<text text-anchor="middle" x="340.5" y="-606.1" font-family="Courier New" font-size="8.00" fill="#000000">OS_MemInit()</text>
</g>
<!-- OSInit()&#45;&gt;OS_MemInit() -->
<g id="edge23" class="edge">
<title>OSInit()&#45;&gt;OS_MemInit()</title>
<path fill="none" stroke="#000000" d="M198.9183,-539.1877C220.1903,-551.871 256.443,-572.7609 289,-588 294.1213,-590.3971 299.6149,-592.7508 305.0379,-594.954"/>
<polygon fill="#000000" stroke="#000000" points="304.6932,-596.7008 309.9856,-596.9319 305.9925,-593.4509 304.6932,-596.7008"/>
</g>
<!-- OSDebugInit() -->
<g id="node24" class="node">
<title>OSDebugInit()</title>
<polygon fill="#ccccff" stroke="#000000" points="379,-499 302,-499 302,-477 379,-477 379,-499"/>
<text text-anchor="middle" x="340.5" y="-486.1" font-family="Courier New" font-size="8.00" fill="#000000">OSDebugInit()</text>
</g>
<!-- OSInit()&#45;&gt;OSDebugInit() -->
<g id="edge20" class="edge">
<title>OSInit()&#45;&gt;OSDebugInit()</title>
<path fill="none" stroke="#000000" d="M207.6418,-521.2145C232.0835,-515.1041 268.4402,-506.015 296.9454,-498.8887"/>
<polygon fill="#000000" stroke="#000000" points="297.3837,-500.583 301.8099,-497.6725 296.5347,-497.1875 297.3837,-500.583"/>
</g>
<!-- OS_InitTCBList() -->
<g id="node26" class="node">
<title>OS_InitTCBList()</title>
<polygon fill="#ccccff" stroke="#000000" points="387,-819 294,-819 294,-797 387,-797 387,-819"/>
<text text-anchor="middle" x="340.5" y="-806.1" font-family="Courier New" font-size="8.00" fill="#000000">OS_InitTCBList()</text>
</g>
<!-- OSInit()&#45;&gt;OS_InitTCBList() -->
<g id="edge46" class="edge">
<title>OSInit()&#45;&gt;OS_InitTCBList()</title>
<path fill="none" stroke="#000000" d="M181.997,-539.1042C187.8903,-578.604 213.0199,-713.8897 289,-788 291.3881,-790.3294 294.078,-792.395 296.9435,-794.2255"/>
<polygon fill="#000000" stroke="#000000" points="296.3701,-795.916 301.5729,-796.9126 298.1271,-792.889 296.3701,-795.916"/>
</g>
<!-- OSInitHookEnd() -->
<g id="node27" class="node">
<title>OSInitHookEnd()</title>
<polygon fill="#ccccff" stroke="#000000" points="384,-459 297,-459 297,-437 384,-437 384,-459"/>
<text text-anchor="middle" x="340.5" y="-446.1" font-family="Courier New" font-size="8.00" fill="#000000">OSInitHookEnd()</text>
</g>
<!-- OSInit()&#45;&gt;OSInitHookEnd() -->
<g id="edge29" class="edge">
<title>OSInit()&#45;&gt;OSInitHookEnd()</title>
<path fill="none" stroke="#000000" d="M198.9183,-516.8123C220.1903,-504.129 256.443,-483.2391 289,-468 294.1213,-465.6029 299.6149,-463.2492 305.0379,-461.046"/>
<polygon fill="#000000" stroke="#000000" points="305.9925,-462.5491 309.9856,-459.0681 304.6932,-459.2992 305.9925,-462.5491"/>
</g>
<!-- OS_TLS_Init() -->
<g id="node30" class="node">
<title>OS_TLS_Init()</title>
<polygon fill="#ccccff" stroke="#000000" points="379,-419 302,-419 302,-397 379,-397 379,-419"/>
<text text-anchor="middle" x="340.5" y="-406.1" font-family="Courier New" font-size="8.00" fill="#000000">OS_TLS_Init()</text>
</g>
<!-- OSInit()&#45;&gt;OS_TLS_Init() -->
<g id="edge34" class="edge">
<title>OSInit()&#45;&gt;OS_TLS_Init()</title>
<path fill="none" stroke="#000000" d="M189.9024,-516.9402C207.519,-496.8119 247.4812,-453.888 289,-428 293.0046,-425.503 297.3723,-423.227 301.8156,-421.1794"/>
<polygon fill="#000000" stroke="#000000" points="302.7835,-422.6653 306.6531,-419.0474 301.3719,-419.4625 302.7835,-422.6653"/>
</g>
<!-- OS_InitMisc() -->
<g id="node38" class="node">
<title>OS_InitMisc()</title>
<polygon fill="#ccccff" stroke="#000000" points="379,-379 302,-379 302,-357 379,-357 379,-379"/>
<text text-anchor="middle" x="340.5" y="-366.1" font-family="Courier New" font-size="8.00" fill="#000000">OS_InitMisc()</text>
</g>
<!-- OSInit()&#45;&gt;OS_InitMisc() -->
<g id="edge45" class="edge">
<title>OSInit()&#45;&gt;OS_InitMisc()</title>
<path fill="none" stroke="#000000" d="M186.3005,-516.8982C200.4417,-490.8364 239.2127,-425.1428 289,-388 292.3706,-385.4854 296.0973,-383.2455 299.9592,-381.26"/>
<polygon fill="#000000" stroke="#000000" points="300.8017,-382.7965 304.5416,-379.0447 299.2783,-379.6454 300.8017,-382.7965"/>
</g>
<!-- OS_QInit()&#45;&gt;OS_MemClr() -->
<g id="edge27" class="edge">
<title>OS_QInit()&#45;&gt;OS_MemClr()</title>
<path fill="none" stroke="#000000" d="M371.1333,-723.5116C391.072,-720.5902 417.2398,-716.7561 438.5704,-713.6307"/>
<polygon fill="#000000" stroke="#000000" points="438.9081,-715.35 443.6015,-712.8936 438.4006,-711.887 438.9081,-715.35"/>
</g>
<!-- OSTaskCreateExt() -->
<g id="node8" class="node">
<title>OSTaskCreateExt()</title>
<polygon fill="#ccccff" stroke="#000000" points="526,-259 428,-259 428,-237 526,-237 526,-259"/>
<text text-anchor="middle" x="477" y="-246.1" font-family="Courier New" font-size="8.00" fill="#000000">OSTaskCreateExt()</text>
</g>
<!-- OS_InitTaskIdle()&#45;&gt;OSTaskCreateExt() -->
<g id="edge4" class="edge">
<title>OS_InitTaskIdle()&#45;&gt;OSTaskCreateExt()</title>
<path fill="none" stroke="#000000" d="M375.6989,-316.891C381.3829,-314.3874 387.0272,-311.4329 392,-308 411.6831,-294.4123 408.4338,-281.7555 428,-268 431.5117,-265.5312 435.3735,-263.2974 439.3408,-261.2951"/>
<polygon fill="#000000" stroke="#000000" points="440.2769,-262.7873 444.0318,-259.0506 438.7662,-259.63 440.2769,-262.7873"/>
</g>
<!-- OSTaskNameSet() -->
<g id="node15" class="node">
<title>OSTaskNameSet()</title>
<polygon fill="#ccccff" stroke="#000000" points="520.5,-379 433.5,-379 433.5,-357 520.5,-357 520.5,-379"/>
<text text-anchor="middle" x="477" y="-366.1" font-family="Courier New" font-size="8.00" fill="#000000">OSTaskNameSet()</text>
</g>
<!-- OS_InitTaskIdle()&#45;&gt;OSTaskNameSet() -->
<g id="edge10" class="edge">
<title>OS_InitTaskIdle()&#45;&gt;OSTaskNameSet()</title>
<path fill="none" stroke="#000000" d="M378.1606,-339.0361C395.6162,-344.1513 416.4379,-350.2529 434.4589,-355.5337"/>
<polygon fill="#000000" stroke="#000000" points="434.172,-357.2732 439.4623,-357 435.1563,-353.9144 434.172,-357.2732"/>
</g>
<!-- OS_TaskIdle() -->
<g id="node18" class="node">
<title>OS_TaskIdle()</title>
<polygon fill="#ccccff" stroke="#000000" points="515.5,-419 438.5,-419 438.5,-397 515.5,-397 515.5,-419"/>
<text text-anchor="middle" x="477" y="-406.1" font-family="Courier New" font-size="8.00" fill="#000000">OS_TaskIdle()</text>
</g>
<!-- OS_InitTaskIdle()&#45;&gt;OS_TaskIdle() -->
<g id="edge13" class="edge">
<title>OS_InitTaskIdle()&#45;&gt;OS_TaskIdle()</title>
<path fill="none" stroke="#000000" d="M375.6989,-339.109C381.3829,-341.6126 387.0272,-344.5671 392,-348 411.6831,-361.5877 408.4338,-374.2445 428,-388 431.5117,-390.4688 435.3735,-392.7026 439.3408,-394.7049"/>
<polygon fill="#000000" stroke="#000000" points="438.7662,-396.37 444.0318,-396.9494 440.2769,-393.2127 438.7662,-396.37"/>
</g>
<!-- OSTaskCreate() -->
<g id="node28" class="node">
<title>OSTaskCreate()</title>
<polygon fill="#ccccff" stroke="#000000" points="518,-339 436,-339 436,-317 518,-317 518,-339"/>
<text text-anchor="middle" x="477" y="-326.1" font-family="Courier New" font-size="8.00" fill="#000000">OSTaskCreate()</text>
</g>
<!-- OS_InitTaskIdle()&#45;&gt;OSTaskCreate() -->
<g id="edge51" class="edge">
<title>OS_InitTaskIdle()&#45;&gt;OSTaskCreate()</title>
<path fill="none" stroke="#000000" d="M389.7796,-328C403.128,-328 417.5279,-328 430.7057,-328"/>
<polygon fill="#000000" stroke="#000000" points="430.8836,-329.7501 435.8835,-328 430.8835,-326.2501 430.8836,-329.7501"/>
</g>
<!-- OSTaskStkInit() -->
<g id="node25" class="node">
<title>OSTaskStkInit()</title>
<polygon fill="#ccccff" stroke="#000000" points="688.5,-399 601.5,-399 601.5,-377 688.5,-377 688.5,-399"/>
<text text-anchor="middle" x="645" y="-386.1" font-family="Courier New" font-size="8.00" fill="#000000">OSTaskStkInit()</text>
</g>
<!-- OSTaskCreateExt()&#45;&gt;OSTaskStkInit() -->
<g id="edge22" class="edge">
<title>OSTaskCreateExt()&#45;&gt;OSTaskStkInit()</title>
<path fill="none" stroke="#000000" d="M513.9648,-259.0164C518.4004,-261.4584 522.566,-264.4187 526,-268 558.6932,-302.0949 526.8271,-336.4694 562,-368 571.451,-376.4724 583.8663,-381.5145 596.2053,-384.4733"/>
<polygon fill="#000000" stroke="#000000" points="595.8495,-386.1868 601.1079,-385.5446 596.5968,-382.7674 595.8495,-386.1868"/>
</g>
<!-- OS_EXIT_CRITICAL() -->
<g id="node33" class="node">
<title>OS_EXIT_CRITICAL()</title>
<polygon fill="#ccccff" stroke="#000000" points="696.5,-359 593.5,-359 593.5,-337 696.5,-337 696.5,-359"/>
<text text-anchor="middle" x="645" y="-346.1" font-family="Courier New" font-size="8.00" fill="#000000">OS_EXIT_CRITICAL()</text>
</g>
<!-- OSTaskCreateExt()&#45;&gt;OS_EXIT_CRITICAL() -->
<g id="edge37" class="edge">
<title>OSTaskCreateExt()&#45;&gt;OS_EXIT_CRITICAL()</title>
<path fill="none" stroke="#000000" d="M512.0815,-259.0327C517.0643,-261.5058 521.8852,-264.4707 526,-268 549.6051,-288.2462 536.9344,-309.5928 562,-328 569.7318,-333.6779 578.859,-337.7633 588.1818,-340.6983"/>
<polygon fill="#000000" stroke="#000000" points="587.7782,-342.4036 593.0686,-342.1307 588.7627,-339.0449 587.7782,-342.4036"/>
</g>
<!-- OS_SAFETY_CRITICAL_EXCEPTION() -->
<g id="node34" class="node">
<title>OS_SAFETY_CRITICAL_EXCEPTION()</title>
<polygon fill="#ccccff" stroke="#000000" points="728,-319 562,-319 562,-297 728,-297 728,-319"/>
<text text-anchor="middle" x="645" y="-306.1" font-family="Courier New" font-size="8.00" fill="#000000">OS_SAFETY_CRITICAL_EXCEPTION()</text>
</g>
<!-- OSTaskCreateExt()&#45;&gt;OS_SAFETY_CRITICAL_EXCEPTION() -->
<g id="edge38" class="edge">
<title>OSTaskCreateExt()&#45;&gt;OS_SAFETY_CRITICAL_EXCEPTION()</title>
<path fill="none" stroke="#000000" d="M505.7534,-259.0652C512.4653,-261.8324 519.5383,-264.9 526,-268 542.5025,-275.917 544.9471,-281.3509 562,-288 569.3191,-290.8538 577.1651,-293.3831 585.0063,-295.6001"/>
<polygon fill="#000000" stroke="#000000" points="584.5981,-297.3028 589.8831,-296.9402 585.5255,-293.9279 584.5981,-297.3028"/>
</g>
<!-- OS_TCBInit() -->
<g id="node36" class="node">
<title>OS_TCBInit()</title>
<polygon fill="#ccccff" stroke="#000000" points="681,-279 609,-279 609,-257 681,-257 681,-279"/>
<text text-anchor="middle" x="645" y="-266.1" font-family="Courier New" font-size="8.00" fill="#000000">OS_TCBInit()</text>
</g>
<!-- OSTaskCreateExt()&#45;&gt;OS_TCBInit() -->
<g id="edge43" class="edge">
<title>OSTaskCreateExt()&#45;&gt;OS_TCBInit()</title>
<path fill="none" stroke="#000000" d="M526.0442,-253.8386C550.7154,-256.7756 580.283,-260.2956 603.7678,-263.0914"/>
<polygon fill="#000000" stroke="#000000" points="603.8153,-264.8593 608.9872,-263.7128 604.2291,-261.3839 603.8153,-264.8593"/>
</g>
<!-- OS_TaskStkClr() -->
<g id="node37" class="node">
<title>OS_TaskStkClr()</title>
<polygon fill="#ccccff" stroke="#000000" points="688.5,-239 601.5,-239 601.5,-217 688.5,-217 688.5,-239"/>
<text text-anchor="middle" x="645" y="-226.1" font-family="Courier New" font-size="8.00" fill="#000000">OS_TaskStkClr()</text>
</g>
<!-- OSTaskCreateExt()&#45;&gt;OS_TaskStkClr() -->
<g id="edge44" class="edge">
<title>OSTaskCreateExt()&#45;&gt;OS_TaskStkClr()</title>
<path fill="none" stroke="#000000" d="M526.0442,-242.1614C548.1011,-239.5356 574.0718,-236.4438 596.1105,-233.8202"/>
<polygon fill="#000000" stroke="#000000" points="596.573,-235.5276 601.331,-233.1987 596.1592,-232.0521 596.573,-235.5276"/>
</g>
<!-- OS_TRACE_TASK_CREATE() -->
<g id="node39" class="node">
<title>OS_TRACE_TASK_CREATE()</title>
<polygon fill="#ccccff" stroke="#000000" points="707,-199 583,-199 583,-177 707,-177 707,-199"/>
<text text-anchor="middle" x="645" y="-186.1" font-family="Courier New" font-size="8.00" fill="#000000">OS_TRACE_TASK_CREATE()</text>
</g>
<!-- OSTaskCreateExt()&#45;&gt;OS_TRACE_TASK_CREATE() -->
<g id="edge47" class="edge">
<title>OSTaskCreateExt()&#45;&gt;OS_TRACE_TASK_CREATE()</title>
<path fill="none" stroke="#000000" d="M497.462,-236.9248C514.3777,-228.1255 539.2292,-216.0075 562,-208 569.8741,-205.231 578.3001,-202.7125 586.6543,-200.4682"/>
<polygon fill="#000000" stroke="#000000" points="587.4494,-202.0689 591.8412,-199.1065 586.5606,-198.6836 587.4494,-202.0689"/>
</g>
<!-- OS_Sched() -->
<g id="node41" class="node">
<title>OS_Sched()</title>
<polygon fill="#ccccff" stroke="#000000" points="675.5,-159 614.5,-159 614.5,-137 675.5,-137 675.5,-159"/>
<text text-anchor="middle" x="645" y="-146.1" font-family="Courier New" font-size="8.00" fill="#000000">OS_Sched()</text>
</g>
<!-- OSTaskCreateExt()&#45;&gt;OS_Sched() -->
<g id="edge49" class="edge">
<title>OSTaskCreateExt()&#45;&gt;OS_Sched()</title>
<path fill="none" stroke="#000000" d="M485.6057,-236.7846C499.64,-219.3059 529.202,-185.7384 562,-168 576.5246,-160.1446 594.1263,-155.3385 609.3762,-152.4155"/>
<polygon fill="#000000" stroke="#000000" points="609.8428,-154.1095 614.4499,-151.4948 609.2177,-150.6658 609.8428,-154.1095"/>
</g>
<!-- OS_ENTER_CRITICAL() -->
<g id="node42" class="node">
<title>OS_ENTER_CRITICAL()</title>
<polygon fill="#ccccff" stroke="#000000" points="699,-119 591,-119 591,-97 699,-97 699,-119"/>
<text text-anchor="middle" x="645" y="-106.1" font-family="Courier New" font-size="8.00" fill="#000000">OS_ENTER_CRITICAL()</text>
</g>
<!-- OSTaskCreateExt()&#45;&gt;OS_ENTER_CRITICAL() -->
<g id="edge50" class="edge">
<title>OSTaskCreateExt()&#45;&gt;OS_ENTER_CRITICAL()</title>
<path fill="none" stroke="#000000" d="M481.6678,-236.6783C492.1896,-212.6324 520.1507,-156.3537 562,-128 569.1133,-123.1806 577.261,-119.5183 585.6099,-116.7362"/>
<polygon fill="#000000" stroke="#000000" points="586.5713,-118.2701 590.8268,-115.1152 585.5327,-114.9277 586.5713,-118.2701"/>
</g>
<!-- OS_InitEventList()&#45;&gt;OS_MemClr() -->
<g id="edge40" class="edge">
<title>OS_InitEventList()&#45;&gt;OS_MemClr()</title>
<path fill="none" stroke="#000000" d="M392.1048,-695.5611C407.5699,-697.8271 424.2493,-700.271 438.6959,-702.3877"/>
<polygon fill="#000000" stroke="#000000" points="438.71,-704.1583 443.9109,-703.1518 439.2174,-700.6953 438.71,-704.1583"/>
</g>
<!-- createTask()&#45;&gt;OSTaskCreateExt() -->
<g id="edge32" class="edge">
<title>createTask()&#45;&gt;OSTaskCreateExt()</title>
<path fill="none" stroke="#000000" d="M216.5603,-248.8784C267.9452,-248.7051 362.6351,-248.3857 422.5782,-248.1835"/>
<polygon fill="#000000" stroke="#000000" points="422.9145,-249.9325 427.9085,-248.1656 422.9026,-246.4325 422.9145,-249.9325"/>
</g>
<!-- createTask()&#45;&gt;debug_printf() -->
<g id="edge6" class="edge">
<title>createTask()&#45;&gt;debug_printf()</title>
<path fill="none" stroke="#000000" d="M216.8065,-240.1503C239.799,-234.5459 269.7376,-227.2483 294.4015,-221.2365"/>
<polygon fill="#000000" stroke="#000000" points="294.817,-222.9366 299.2603,-220.0522 293.9881,-219.5361 294.817,-222.9366"/>
</g>
<!-- OSTmr_Init()&#45;&gt;OS_MemClr() -->
<g id="edge39" class="edge">
<title>OSTmr_Init()&#45;&gt;OS_MemClr()</title>
<path fill="none" stroke="#000000" d="M376.5912,-578.8706C382.0479,-581.3822 387.3867,-584.4014 392,-588 411.3945,-603.1288 449.75,-663.4697 467.5344,-692.389"/>
<polygon fill="#000000" stroke="#000000" points="466.1014,-693.3999 470.206,-696.7488 469.0857,-691.5712 466.1014,-693.3999"/>
</g>
<!-- OSTmr_InitTask() -->
<g id="node13" class="node">
<title>OSTmr_InitTask()</title>
<polygon fill="#ccccff" stroke="#000000" points="523.5,-579 430.5,-579 430.5,-557 523.5,-557 523.5,-579"/>
<text text-anchor="middle" x="477" y="-566.1" font-family="Courier New" font-size="8.00" fill="#000000">OSTmr_InitTask()</text>
</g>
<!-- OSTmr_Init()&#45;&gt;OSTmr_InitTask() -->
<g id="edge7" class="edge">
<title>OSTmr_Init()&#45;&gt;OSTmr_InitTask()</title>
<path fill="none" stroke="#000000" d="M376.7211,-568C391.4809,-568 408.8253,-568 424.9012,-568"/>
<polygon fill="#000000" stroke="#000000" points="425.2989,-569.7501 430.2989,-568 425.2989,-566.2501 425.2989,-569.7501"/>
</g>
<!-- OSEventNameSet() -->
<g id="node22" class="node">
<title>OSEventNameSet()</title>
<polygon fill="#ccccff" stroke="#000000" points="523.5,-539 430.5,-539 430.5,-517 523.5,-517 523.5,-539"/>
<text text-anchor="middle" x="477" y="-526.1" font-family="Courier New" font-size="8.00" fill="#000000">OSEventNameSet()</text>
</g>
<!-- OSTmr_Init()&#45;&gt;OSEventNameSet() -->
<g id="edge18" class="edge">
<title>OSTmr_Init()&#45;&gt;OSEventNameSet()</title>
<path fill="none" stroke="#000000" d="M376.7211,-557.3858C394.3366,-552.2237 415.6335,-545.9829 434.062,-540.5826"/>
<polygon fill="#000000" stroke="#000000" points="434.8721,-542.1688 439.1782,-539.0833 433.8878,-538.8101 434.8721,-542.1688"/>
</g>
<!-- OSSemCreate() -->
<g id="node29" class="node">
<title>OSSemCreate()</title>
<polygon fill="#ccccff" stroke="#000000" points="515.5,-619 438.5,-619 438.5,-597 515.5,-597 515.5,-619"/>
<text text-anchor="middle" x="477" y="-606.1" font-family="Courier New" font-size="8.00" fill="#000000">OSSemCreate()</text>
</g>
<!-- OSTmr_Init()&#45;&gt;OSSemCreate() -->
<g id="edge33" class="edge">
<title>OSTmr_Init()&#45;&gt;OSSemCreate()</title>
<path fill="none" stroke="#000000" d="M376.7211,-578.6142C394.3366,-583.7763 415.6335,-590.0171 434.062,-595.4174"/>
<polygon fill="#000000" stroke="#000000" points="433.8878,-597.1899 439.1782,-596.9167 434.8721,-593.8312 433.8878,-597.1899"/>
</g>
<!-- OSStartHighRdy() -->
<g id="node19" class="node">
<title>OSStartHighRdy()</title>
<polygon fill="#ccccff" stroke="#000000" points="387,-181 294,-181 294,-159 387,-159 387,-181"/>
<text text-anchor="middle" x="340.5" y="-168.1" font-family="Courier New" font-size="8.00" fill="#000000">OSStartHighRdy()</text>
</g>
<!-- OSStart()&#45;&gt;OSStartHighRdy() -->
<g id="edge14" class="edge">
<title>OSStart()&#45;&gt;OSStartHighRdy()</title>
<path fill="none" stroke="#000000" d="M208.7365,-170.8235C230.7721,-170.6858 261.9901,-170.4907 288.5089,-170.3249"/>
<polygon fill="#000000" stroke="#000000" points="288.7569,-172.0735 293.7458,-170.2922 288.735,-168.5736 288.7569,-172.0735"/>
</g>
<!-- OS_SchedNew() -->
<g id="node23" class="node">
<title>OS_SchedNew()</title>
<polygon fill="#ccccff" stroke="#000000" points="379,-141 302,-141 302,-119 379,-119 379,-141"/>
<text text-anchor="middle" x="340.5" y="-128.1" font-family="Courier New" font-size="8.00" fill="#000000">OS_SchedNew()</text>
</g>
<!-- OSStart()&#45;&gt;OS_SchedNew() -->
<g id="edge19" class="edge">
<title>OSStart()&#45;&gt;OS_SchedNew()</title>
<path fill="none" stroke="#000000" d="M208.7365,-163.7644C233.0598,-157.5316 268.571,-148.4318 296.6006,-141.2492"/>
<polygon fill="#000000" stroke="#000000" points="297.3339,-142.8679 301.7429,-139.9315 296.465,-139.4775 297.3339,-142.8679"/>
</g>
<!-- OS_InitTaskStat()&#45;&gt;OSTaskCreateExt() -->
<g id="edge12" class="edge">
<title>OS_InitTaskStat()&#45;&gt;OSTaskCreateExt()</title>
<path fill="none" stroke="#000000" d="M378.1606,-276.9639C395.6162,-271.8487 416.4379,-265.7471 434.4589,-260.4663"/>
<polygon fill="#000000" stroke="#000000" points="435.1563,-262.0856 439.4623,-259 434.172,-258.7268 435.1563,-262.0856"/>
</g>
<!-- OS_InitTaskStat()&#45;&gt;OSTaskNameSet() -->
<g id="edge41" class="edge">
<title>OS_InitTaskStat()&#45;&gt;OSTaskNameSet()</title>
<path fill="none" stroke="#000000" d="M375.6989,-299.109C381.3829,-301.6126 387.0272,-304.5671 392,-308 411.6831,-321.5877 408.4338,-334.2445 428,-348 431.5117,-350.4688 435.3735,-352.7026 439.3408,-354.7049"/>
<polygon fill="#000000" stroke="#000000" points="438.7662,-356.37 444.0318,-356.9494 440.2769,-353.2127 438.7662,-356.37"/>
</g>
<!-- OS_InitTaskStat()&#45;&gt;OSTaskCreate() -->
<g id="edge31" class="edge">
<title>OS_InitTaskStat()&#45;&gt;OSTaskCreate()</title>
<path fill="none" stroke="#000000" d="M378.1606,-299.0361C395.6162,-304.1513 416.4379,-310.2529 434.4589,-315.5337"/>
<polygon fill="#000000" stroke="#000000" points="434.172,-317.2732 439.4623,-317 435.1563,-313.9144 434.172,-317.2732"/>
</g>
<!-- OS_TaskStat() -->
<g id="node32" class="node">
<title>OS_TaskStat()</title>
<polygon fill="#ccccff" stroke="#000000" points="515.5,-299 438.5,-299 438.5,-277 515.5,-277 515.5,-299"/>
<text text-anchor="middle" x="477" y="-286.1" font-family="Courier New" font-size="8.00" fill="#000000">OS_TaskStat()</text>
</g>
<!-- OS_InitTaskStat()&#45;&gt;OS_TaskStat() -->
<g id="edge36" class="edge">
<title>OS_InitTaskStat()&#45;&gt;OS_TaskStat()</title>
<path fill="none" stroke="#000000" d="M389.7796,-288C403.9262,-288 419.254,-288 433.0562,-288"/>
<polygon fill="#000000" stroke="#000000" points="433.0673,-289.7501 438.0673,-288 433.0672,-286.2501 433.0673,-289.7501"/>
</g>
<!-- OS_MemInit()&#45;&gt;OS_MemClr() -->
<g id="edge15" class="edge">
<title>OS_MemInit()&#45;&gt;OS_MemClr()</title>
<path fill="none" stroke="#000000" d="M374.3761,-619.0009C380.4469,-621.5675 386.5647,-624.5714 392,-628 421.001,-646.294 448.7983,-675.3536 464.3137,-692.9558"/>
<polygon fill="#000000" stroke="#000000" points="463.0126,-694.1265 467.6185,-696.7434 465.6499,-691.8254 463.0126,-694.1265"/>
</g>
<!-- OS_InitTCBList()&#45;&gt;OS_MemClr() -->
<g id="edge25" class="edge">
<title>OS_InitTCBList()&#45;&gt;OS_MemClr()</title>
<path fill="none" stroke="#000000" d="M374.3761,-796.9991C380.4469,-794.4325 386.5647,-791.4286 392,-788 421.001,-769.706 448.7983,-740.6464 464.3137,-723.0442"/>
<polygon fill="#000000" stroke="#000000" points="465.6499,-724.1746 467.6185,-719.2566 463.0126,-721.8735 465.6499,-724.1746"/>
</g>
</g>
</svg>
