<?xml version="1.0" encoding="UTF-8" standalone="no"?>
<!DOCTYPE svg PUBLIC "-//W3C//DTD SVG 1.1//EN"
 "http://www.w3.org/Graphics/SVG/1.1/DTD/svg11.dtd">
<!-- Generated by graphviz version 2.40.1 (0)
 -->
<!-- Title: call_graph Pages: 1 -->
<svg width="826pt" height="309pt"
 viewBox="0.00 0.00 826.00 309.00" xmlns="http://www.w3.org/2000/svg" xmlns:xlink="http://www.w3.org/1999/xlink">
<g id="graph0" class="graph" transform="scale(1 1) rotate(0) translate(4 305)">
<title>call_graph</title>
<polygon fill="#ffffff" stroke="transparent" points="-4,4 -4,-305 822,-305 822,4 -4,4"/>
<!-- xadc_trigger_handler() -->
<g id="node1" class="node">
<title>xadc_trigger_handler()</title>
<polygon fill="#ccccff" stroke="#000000" points="124,-161 0,-161 0,-139 124,-139 124,-161"/>
<text text-anchor="middle" x="62" y="-148.1" font-family="Courier New" font-size="8.00" fill="#000000">xadc_trigger_handler()</text>
</g>
<!-- iio_priv() -->
<g id="node2" class="node">
<title>iio_priv()</title>
<polygon fill="#ccccff" stroke="#000000" points="268.5,-261 207.5,-261 207.5,-239 268.5,-239 268.5,-261"/>
<text text-anchor="middle" x="238" y="-248.1" font-family="Courier New" font-size="8.00" fill="#000000">iio_priv()</text>
</g>
<!-- xadc_trigger_handler()&#45;&gt;iio_priv() -->
<g id="edge1" class="edge">
<title>xadc_trigger_handler()&#45;&gt;iio_priv()</title>
<path fill="none" stroke="#000000" d="M72.3358,-161.1004C89.0837,-178.4214 123.93,-211.7769 160,-230 173.1133,-236.625 188.6052,-241.1812 202.3129,-244.2506"/>
<polygon fill="#000000" stroke="#000000" points="202.0187,-245.9772 207.2746,-245.3152 202.7531,-242.5551 202.0187,-245.9772"/>
</g>
<!-- iio_trigger_notify_done() -->
<g id="node7" class="node">
<title>iio_trigger_notify_done()</title>
<polygon fill="#ccccff" stroke="#000000" points="308,-221 168,-221 168,-199 308,-199 308,-221"/>
<text text-anchor="middle" x="238" y="-208.1" font-family="Courier New" font-size="8.00" fill="#000000">iio_trigger_notify_done()</text>
</g>
<!-- xadc_trigger_handler()&#45;&gt;iio_trigger_notify_done() -->
<g id="edge4" class="edge">
<title>xadc_trigger_handler()&#45;&gt;iio_trigger_notify_done()</title>
<path fill="none" stroke="#000000" d="M86.6223,-161.1447C106.2332,-169.753 134.526,-181.579 160,-190 168.134,-192.6889 176.8434,-195.2365 185.3866,-197.5564"/>
<polygon fill="#000000" stroke="#000000" points="185.3956,-199.3701 190.6779,-198.9706 186.2994,-195.9888 185.3956,-199.3701"/>
</g>
<!-- iio_push_to_buffers() -->
<g id="node10" class="node">
<title>iio_push_to_buffers()</title>
<polygon fill="#ccccff" stroke="#000000" points="297.5,-181 178.5,-181 178.5,-159 297.5,-159 297.5,-181"/>
<text text-anchor="middle" x="238" y="-168.1" font-family="Courier New" font-size="8.00" fill="#000000">iio_push_to_buffers()</text>
</g>
<!-- xadc_trigger_handler()&#45;&gt;iio_push_to_buffers() -->
<g id="edge19" class="edge">
<title>xadc_trigger_handler()&#45;&gt;iio_push_to_buffers()</title>
<path fill="none" stroke="#000000" d="M124.051,-157.0513C139.8781,-158.8498 156.9351,-160.7881 172.9095,-162.6034"/>
<polygon fill="#000000" stroke="#000000" points="173.1164,-164.3881 178.2821,-163.2139 173.5117,-160.9104 173.1164,-164.3881"/>
</g>
<!-- xadc_scan_index_to_channel() -->
<g id="node11" class="node">
<title>xadc_scan_index_to_channel()</title>
<polygon fill="#ccccff" stroke="#000000" points="316,-141 160,-141 160,-119 316,-119 316,-141"/>
<text text-anchor="middle" x="238" y="-128.1" font-family="Courier New" font-size="8.00" fill="#000000">xadc_scan_index_to_channel()</text>
</g>
<!-- xadc_trigger_handler()&#45;&gt;xadc_scan_index_to_channel() -->
<g id="edge8" class="edge">
<title>xadc_trigger_handler()&#45;&gt;xadc_scan_index_to_channel()</title>
<path fill="none" stroke="#000000" d="M124.051,-142.9487C134.0019,-141.818 144.439,-140.6319 154.7875,-139.456"/>
<polygon fill="#000000" stroke="#000000" points="155.0876,-141.1832 159.858,-138.8798 154.6924,-137.7056 155.0876,-141.1832"/>
</g>
<!-- for_each_set_bit() -->
<g id="node12" class="node">
<title>for_each_set_bit()</title>
<polygon fill="#ccccff" stroke="#000000" points="289.5,-101 186.5,-101 186.5,-79 289.5,-79 289.5,-101"/>
<text text-anchor="middle" x="238" y="-88.1" font-family="Courier New" font-size="8.00" fill="#000000">for_each_set_bit()</text>
</g>
<!-- xadc_trigger_handler()&#45;&gt;for_each_set_bit() -->
<g id="edge9" class="edge">
<title>xadc_trigger_handler()&#45;&gt;for_each_set_bit()</title>
<path fill="none" stroke="#000000" d="M86.6223,-138.8553C106.2332,-130.247 134.526,-118.421 160,-110 168.134,-107.3111 176.8434,-104.7635 185.3866,-102.4436"/>
<polygon fill="#000000" stroke="#000000" points="186.2994,-104.0112 190.6779,-101.0294 185.3956,-100.6299 186.2994,-104.0112"/>
</g>
<!-- xadc_read_adc_reg() -->
<g id="node15" class="node">
<title>xadc_read_adc_reg()</title>
<polygon fill="#ccccff" stroke="#000000" points="292,-61 184,-61 184,-39 292,-39 292,-61"/>
<text text-anchor="middle" x="238" y="-48.1" font-family="Courier New" font-size="8.00" fill="#000000">xadc_read_adc_reg()</text>
</g>
<!-- xadc_trigger_handler()&#45;&gt;xadc_read_adc_reg() -->
<g id="edge14" class="edge">
<title>xadc_trigger_handler()&#45;&gt;xadc_read_adc_reg()</title>
<path fill="none" stroke="#000000" d="M72.3358,-138.8996C89.0837,-121.5786 123.93,-88.2231 160,-70 165.8665,-67.0362 172.209,-64.4864 178.6549,-62.2986"/>
<polygon fill="#000000" stroke="#000000" points="179.3819,-63.9026 183.598,-60.6952 178.302,-60.5733 179.3819,-63.9026"/>
</g>
<!-- iio_trigger_poll() -->
<g id="node3" class="node">
<title>iio_trigger_poll()</title>
<polygon fill="#ccccff" stroke="#000000" points="463,-261 360,-261 360,-239 463,-239 463,-261"/>
<text text-anchor="middle" x="411.5" y="-248.1" font-family="Courier New" font-size="8.00" fill="#000000">iio_trigger_poll()</text>
</g>
<!-- atomic_set() -->
<g id="node4" class="node">
<title>atomic_set()</title>
<polygon fill="#ccccff" stroke="#000000" points="621,-301 549,-301 549,-279 621,-279 621,-301"/>
<text text-anchor="middle" x="585" y="-288.1" font-family="Courier New" font-size="8.00" fill="#000000">atomic_set()</text>
</g>
<!-- iio_trigger_poll()&#45;&gt;atomic_set() -->
<g id="edge2" class="edge">
<title>iio_trigger_poll()&#45;&gt;atomic_set()</title>
<path fill="none" stroke="#000000" d="M459.3689,-261.0361C485.8864,-267.1496 518.5153,-274.6721 543.874,-280.5185"/>
<polygon fill="#000000" stroke="#000000" points="543.5795,-282.2464 548.8449,-281.6645 544.3658,-278.8359 543.5795,-282.2464"/>
</g>
<!-- iio_trigger_poll()&#45;&gt;iio_trigger_notify_done() -->
<g id="edge17" class="edge">
<title>iio_trigger_poll()&#45;&gt;iio_trigger_notify_done()</title>
<path fill="none" stroke="#000000" d="M359.6976,-244.2946C330.2617,-238.4188 294.3798,-229.8435 269.2322,-222.5293"/>
<polygon fill="#000000" stroke="#000000" points="269.642,-220.8256 264.3509,-221.0845 268.6486,-224.1817 269.642,-220.8256"/>
</g>
<!-- atomic_read() -->
<g id="node9" class="node">
<title>atomic_read()</title>
<polygon fill="#ccccff" stroke="#000000" points="623.5,-261 546.5,-261 546.5,-239 623.5,-239 623.5,-261"/>
<text text-anchor="middle" x="585" y="-248.1" font-family="Courier New" font-size="8.00" fill="#000000">atomic_read()</text>
</g>
<!-- iio_trigger_poll()&#45;&gt;atomic_read() -->
<g id="edge6" class="edge">
<title>iio_trigger_poll()&#45;&gt;atomic_read()</title>
<path fill="none" stroke="#000000" d="M463.086,-250C487.881,-250 517.2896,-250 541.0102,-250"/>
<polygon fill="#000000" stroke="#000000" points="541.2902,-251.7501 546.2901,-250 541.2901,-248.2501 541.2902,-251.7501"/>
</g>
<!-- generic_handle_irq() -->
<g id="node13" class="node">
<title>generic_handle_irq()</title>
<polygon fill="#ccccff" stroke="#000000" points="642,-221 528,-221 528,-199 642,-199 642,-221"/>
<text text-anchor="middle" x="585" y="-208.1" font-family="Courier New" font-size="8.00" fill="#000000">generic_handle_irq()</text>
</g>
<!-- iio_trigger_poll()&#45;&gt;generic_handle_irq() -->
<g id="edge10" class="edge">
<title>iio_trigger_poll()&#45;&gt;generic_handle_irq()</title>
<path fill="none" stroke="#000000" d="M459.3689,-238.9639C482.0303,-233.7394 509.1548,-227.4859 532.391,-222.1289"/>
<polygon fill="#000000" stroke="#000000" points="532.8083,-223.8287 537.2873,-221 532.0219,-220.4181 532.8083,-223.8287"/>
</g>
<!-- iio_demux() -->
<g id="node5" class="node">
<title>iio_demux()</title>
<polygon fill="#ccccff" stroke="#000000" points="618,-143 552,-143 552,-121 618,-121 618,-143"/>
<text text-anchor="middle" x="585" y="-130.1" font-family="Courier New" font-size="8.00" fill="#000000">iio_demux()</text>
</g>
<!-- list_for_each_entry() -->
<g id="node6" class="node">
<title>list_for_each_entry()</title>
<polygon fill="#ccccff" stroke="#000000" points="818,-183 699,-183 699,-161 818,-161 818,-183"/>
<text text-anchor="middle" x="758.5" y="-170.1" font-family="Courier New" font-size="8.00" fill="#000000">list_for_each_entry()</text>
</g>
<!-- iio_demux()&#45;&gt;list_for_each_entry() -->
<g id="edge3" class="edge">
<title>iio_demux()&#45;&gt;list_for_each_entry()</title>
<path fill="none" stroke="#000000" d="M618.0424,-139.6178C642.7651,-145.3176 677.0823,-153.2294 705.6069,-159.8056"/>
<polygon fill="#000000" stroke="#000000" points="705.2309,-161.5148 710.4963,-160.9329 706.0173,-158.1042 705.2309,-161.5148"/>
</g>
<!-- memcpy() -->
<g id="node14" class="node">
<title>memcpy()</title>
<polygon fill="#ccccff" stroke="#000000" points="785.5,-143 731.5,-143 731.5,-121 785.5,-121 785.5,-143"/>
<text text-anchor="middle" x="758.5" y="-130.1" font-family="Courier New" font-size="8.00" fill="#000000">memcpy()</text>
</g>
<!-- iio_demux()&#45;&gt;memcpy() -->
<g id="edge11" class="edge">
<title>iio_demux()&#45;&gt;memcpy()</title>
<path fill="none" stroke="#000000" d="M618.0424,-132C649.0852,-132 695.255,-132 726.0901,-132"/>
<polygon fill="#000000" stroke="#000000" points="726.2819,-133.7501 731.2818,-132 726.2818,-130.2501 726.2819,-133.7501"/>
</g>
<!-- list_empty() -->
<g id="node19" class="node">
<title>list_empty()</title>
<polygon fill="#ccccff" stroke="#000000" points="794.5,-103 722.5,-103 722.5,-81 794.5,-81 794.5,-103"/>
<text text-anchor="middle" x="758.5" y="-90.1" font-family="Courier New" font-size="8.00" fill="#000000">list_empty()</text>
</g>
<!-- iio_demux()&#45;&gt;list_empty() -->
<g id="edge18" class="edge">
<title>iio_demux()&#45;&gt;list_empty()</title>
<path fill="none" stroke="#000000" d="M618.0424,-124.3822C646.2039,-117.8896 686.8148,-108.5268 717.1324,-101.5372"/>
<polygon fill="#000000" stroke="#000000" points="717.8073,-103.1776 722.2863,-100.349 717.021,-99.7671 717.8073,-103.1776"/>
</g>
<!-- iio_trigger_notify_done()&#45;&gt;iio_trigger_poll() -->
<g id="edge12" class="edge">
<title>iio_trigger_notify_done()&#45;&gt;iio_trigger_poll()</title>
<path fill="none" stroke="#000000" d="M308.069,-219.5164C333.2122,-224.9712 360.2982,-231.6556 380.4428,-237.5216"/>
<polygon fill="#000000" stroke="#000000" points="380.1182,-239.2506 385.4094,-238.9941 381.1131,-235.895 380.1182,-239.2506"/>
</g>
<!-- atomic_dec_and_test() -->
<g id="node17" class="node">
<title>atomic_dec_and_test()</title>
<polygon fill="#ccccff" stroke="#000000" points="471,-221 352,-221 352,-199 471,-199 471,-221"/>
<text text-anchor="middle" x="411.5" y="-208.1" font-family="Courier New" font-size="8.00" fill="#000000">atomic_dec_and_test()</text>
</g>
<!-- iio_trigger_notify_done()&#45;&gt;atomic_dec_and_test() -->
<g id="edge15" class="edge">
<title>iio_trigger_notify_done()&#45;&gt;atomic_dec_and_test()</title>
<path fill="none" stroke="#000000" d="M308.069,-210C320.742,-210 333.9085,-210 346.431,-210"/>
<polygon fill="#000000" stroke="#000000" points="346.7551,-211.7501 351.7551,-210 346.7551,-208.2501 346.7551,-211.7501"/>
</g>
<!-- iio_push_to_buffer() -->
<g id="node8" class="node">
<title>iio_push_to_buffer()</title>
<polygon fill="#ccccff" stroke="#000000" points="468.5,-143 354.5,-143 354.5,-121 468.5,-121 468.5,-143"/>
<text text-anchor="middle" x="411.5" y="-130.1" font-family="Courier New" font-size="8.00" fill="#000000">iio_push_to_buffer()</text>
</g>
<!-- iio_push_to_buffer()&#45;&gt;iio_demux() -->
<g id="edge5" class="edge">
<title>iio_push_to_buffer()&#45;&gt;iio_demux()</title>
<path fill="none" stroke="#000000" d="M468.7912,-132C494.3935,-132 523.8802,-132 546.7448,-132"/>
<polygon fill="#000000" stroke="#000000" points="546.8144,-133.7501 551.8144,-132 546.8144,-130.2501 546.8144,-133.7501"/>
</g>
<!-- wake_up_interruptible_poll() -->
<g id="node18" class="node">
<title>wake_up_interruptible_poll()</title>
<polygon fill="#ccccff" stroke="#000000" points="663,-103 507,-103 507,-81 663,-81 663,-103"/>
<text text-anchor="middle" x="585" y="-90.1" font-family="Courier New" font-size="8.00" fill="#000000">wake_up_interruptible_poll()</text>
</g>
<!-- iio_push_to_buffer()&#45;&gt;wake_up_interruptible_poll() -->
<g id="edge16" class="edge">
<title>iio_push_to_buffer()&#45;&gt;wake_up_interruptible_poll()</title>
<path fill="none" stroke="#000000" d="M459.3689,-120.9639C482.0303,-115.7394 509.1548,-109.4859 532.391,-104.1289"/>
<polygon fill="#000000" stroke="#000000" points="532.8083,-105.8287 537.2873,-103 532.0219,-102.4181 532.8083,-105.8287"/>
</g>
<!-- iio_push_to_buffers()&#45;&gt;list_for_each_entry() -->
<g id="edge7" class="edge">
<title>iio_push_to_buffers()&#45;&gt;list_for_each_entry()</title>
<path fill="none" stroke="#000000" d="M297.708,-170.2294C396.1812,-170.6078 591.8501,-171.3597 693.6161,-171.7507"/>
<polygon fill="#000000" stroke="#000000" points="693.6822,-173.5009 698.6889,-171.7702 693.6957,-170.0009 693.6822,-173.5009"/>
</g>
<!-- iio_push_to_buffers()&#45;&gt;iio_push_to_buffer() -->
<g id="edge20" class="edge">
<title>iio_push_to_buffers()&#45;&gt;iio_push_to_buffer()</title>
<path fill="none" stroke="#000000" d="M288.6498,-158.9067C309.7621,-154.2827 334.3464,-148.8982 355.9517,-144.1662"/>
<polygon fill="#000000" stroke="#000000" points="356.5774,-145.8207 361.0872,-143.0414 355.8285,-142.4018 356.5774,-145.8207"/>
</g>
<!-- XADC_REG_VAUX() -->
<g id="node21" class="node">
<title>XADC_REG_VAUX()</title>
<polygon fill="#ccccff" stroke="#000000" points="455,-103 368,-103 368,-81 455,-81 455,-103"/>
<text text-anchor="middle" x="411.5" y="-90.1" font-family="Courier New" font-size="8.00" fill="#000000">XADC_REG_VAUX()</text>
</g>
<!-- xadc_scan_index_to_channel()&#45;&gt;XADC_REG_VAUX() -->
<g id="edge22" class="edge">
<title>xadc_scan_index_to_channel()&#45;&gt;XADC_REG_VAUX()</title>
<path fill="none" stroke="#000000" d="M288.6498,-118.9067C311.9899,-113.7947 339.5735,-107.7534 362.6842,-102.6917"/>
<polygon fill="#000000" stroke="#000000" points="363.3375,-104.3401 367.8473,-101.5608 362.5886,-100.9212 363.3375,-104.3401"/>
</g>
<!-- mutex_unlock() -->
<g id="node16" class="node">
<title>mutex_unlock()</title>
<polygon fill="#ccccff" stroke="#000000" points="452.5,-62 370.5,-62 370.5,-40 452.5,-40 452.5,-62"/>
<text text-anchor="middle" x="411.5" y="-49.1" font-family="Courier New" font-size="8.00" fill="#000000">mutex_unlock()</text>
</g>
<!-- xadc_read_adc_reg()&#45;&gt;mutex_unlock() -->
<g id="edge13" class="edge">
<title>xadc_read_adc_reg()&#45;&gt;mutex_unlock()</title>
<path fill="none" stroke="#000000" d="M292.4205,-50.3137C315.8878,-50.4489 343.0385,-50.6054 365.483,-50.7348"/>
<polygon fill="#000000" stroke="#000000" points="365.4811,-52.4847 370.4911,-50.7636 365.5013,-48.9847 365.4811,-52.4847"/>
</g>
<!-- mutex_lock() -->
<g id="node20" class="node">
<title>mutex_lock()</title>
<polygon fill="#ccccff" stroke="#000000" points="447.5,-22 375.5,-22 375.5,0 447.5,0 447.5,-22"/>
<text text-anchor="middle" x="411.5" y="-9.1" font-family="Courier New" font-size="8.00" fill="#000000">mutex_lock()</text>
</g>
<!-- xadc_read_adc_reg()&#45;&gt;mutex_lock() -->
<g id="edge21" class="edge">
<title>xadc_read_adc_reg()&#45;&gt;mutex_lock()</title>
<path fill="none" stroke="#000000" d="M287.254,-38.9285C313.5523,-33.0171 345.5435,-25.826 370.4774,-20.2212"/>
<polygon fill="#000000" stroke="#000000" points="370.8718,-21.9263 375.3663,-19.1223 370.1042,-18.5115 370.8718,-21.9263"/>
</g>
</g>
</svg>
